M48
METRIC,LZ,000.000
;FILE_FORMAT=3:3
;TYPE=PLATED
;Layer: PTH_Through
;EasyEDA v6.5.22, 2023-03-16 18:17:56
;154933f4cc8841fba2b3e540ab7d939e,10
;Gerber Generator version 0.2
;Holesize 1 = 0.800 mm
T01C0.800
;Holesize 2 = 1.000 mm
T02C1.000
;Holesize 3 = 1.200 mm
T03C1.200
;Holesize 4 = 1.400 mm
T04C1.400
%
G05
G90
T01
X059246Y009595G85X059246Y011795
X055646Y007695G85X053446Y007695
X055896Y013895G85X053196Y013895
T02
X042291Y007648
X042291Y011148
X008979Y003570G85X008979Y003570
X008979Y026430G85X008979Y026430
X026759Y003570G85X026759Y003570
X024219Y003570G85X024219Y003570
X021679Y003570G85X021679Y003570
X019139Y003570G85X019139Y003570
X016599Y003570G85X016599Y003570
X014059Y003570G85X014059Y003570
X011519Y003570G85X011519Y003570
X026759Y026430G85X026759Y026430
X024219Y026430G85X024219Y026430
X021679Y026430G85X021679Y026430
X019139Y026430G85X019139Y026430
X016599Y026430G85X016599Y026430
X014059Y026430G85X014059Y026430
X011519Y026430G85X011519Y026430
T03
X052565Y025280
X055105Y025282
X052565Y022742
X055105Y022742
X052565Y020202
X055105Y020202
X052565Y017662
X055105Y017662
T04
X044332Y026289
X039332Y026289
X034332Y026289
M30
