G04 Layer: TopLayer*
G04 EasyEDA v6.5.22, 2023-03-16 18:17:56*
G04 154933f4cc8841fba2b3e540ab7d939e,10*
G04 Gerber Generator version 0.2*
G04 Scale: 100 percent, Rotated: No, Reflected: No *
G04 Dimensions in millimeters *
G04 leading zeros omitted , absolute positions ,4 integer and 5 decimal *
%FSLAX45Y45*%
%MOMM*%

%ADD10C,0.5000*%
%ADD11C,0.2540*%
%ADD12C,2.0000*%
%ADD13C,1.6000*%
%ADD14R,1.8000X1.8000*%
%ADD15C,1.8000*%
%ADD16C,1.5080*%
%ADD17O,1.9558X4.064*%
%ADD18O,4.064X1.9558*%
%ADD19O,4.572X1.9558*%
%ADD20C,2.2000*%
%ADD21C,0.6100*%

%LPD*%
D10*
X1151887Y358139D02*
G01*
X1151887Y441960D01*
X1473200Y762000D01*
X4229099Y764794D01*
D11*
X1405887Y356999D02*
G01*
X1241905Y193017D01*
X854428Y193017D01*
X751761Y295683D01*
X751761Y416283D01*
X2663797Y2328318D01*
X3641493Y2328318D01*
X3933187Y2620012D01*
X3933187Y2628902D01*
D12*
X5454599Y769493D02*
G01*
X4229099Y764794D01*
X5016421Y2527300D02*
G01*
X4803518Y2313939D01*
X4800599Y762000D01*
X5256502Y2527962D02*
G01*
X5136461Y2527962D01*
X5136461Y2527962D02*
G01*
X5016421Y2527962D01*
X4433186Y2628902D02*
G01*
X4915481Y2628902D01*
X5016421Y2527962D01*
D11*
X897887Y2642999D02*
G01*
X1064841Y2809953D01*
X5262140Y2809953D01*
X5510502Y2561592D01*
X5510502Y2528216D01*
X1659887Y2642999D02*
G01*
X1915995Y2386891D01*
X3617211Y2386891D01*
D13*
G01*
X4229099Y764794D03*
G01*
X4229099Y1114805D03*
D14*
G01*
X5256491Y2527973D03*
D15*
G01*
X5510491Y2528227D03*
G01*
X5256491Y2274227D03*
G01*
X5510491Y2274227D03*
G01*
X5256491Y2020227D03*
G01*
X5510491Y2020227D03*
G01*
X5256491Y1766227D03*
G01*
X5510491Y1766227D03*
D16*
G01*
X897889Y356996D03*
G01*
X897889Y2642996D03*
G01*
X2675889Y356996D03*
G01*
X2421889Y356996D03*
G01*
X2167889Y356996D03*
G01*
X1913889Y356996D03*
G01*
X1659889Y356996D03*
G01*
X1405889Y356996D03*
G01*
X1151889Y356996D03*
G01*
X2675889Y2642996D03*
G01*
X2421889Y2642996D03*
G01*
X2167889Y2642996D03*
G01*
X1913889Y2642996D03*
G01*
X1659889Y2642996D03*
G01*
X1405889Y2642996D03*
G01*
X1151889Y2642996D03*
D17*
G01*
X5924600Y1069492D03*
D18*
G01*
X5454599Y769493D03*
D19*
G01*
X5454599Y1389506D03*
D20*
G01*
X4433189Y2628900D03*
G01*
X3933189Y2628900D03*
G01*
X3433190Y2628900D03*
D21*
G01*
X3617211Y2386891D03*
M02*
